<mxfile host="app.diagrams.net" agent="Mozilla/5.0 (Windows NT 10.0; Win64; x64) AppleWebKit/537.36 (KHTML, like Gecko) Chrome/131.0.0.0 Safari/537.36" version="26.0.7">
  <diagram name="Page-1" id="KqF2gxiC4aidOCwAgJPE">
    <mxGraphModel dx="1318" dy="511" grid="1" gridSize="10" guides="1" tooltips="1" connect="1" arrows="1" fold="1" page="1" pageScale="1" pageWidth="850" pageHeight="1100" math="0" shadow="0">
      <root>
        <mxCell id="0" />
        <mxCell id="1" parent="0" />
        <mxCell id="tHR5adAbqXcKI6cgPoyI-31" style="edgeStyle=orthogonalEdgeStyle;rounded=0;orthogonalLoop=1;jettySize=auto;html=1;entryX=0.5;entryY=0;entryDx=0;entryDy=0;" edge="1" parent="1" source="tHR5adAbqXcKI6cgPoyI-1" target="tHR5adAbqXcKI6cgPoyI-5">
          <mxGeometry relative="1" as="geometry" />
        </mxCell>
        <mxCell id="tHR5adAbqXcKI6cgPoyI-1" value="start" style="ellipse;whiteSpace=wrap;html=1;" vertex="1" parent="1">
          <mxGeometry x="20" y="140" width="120" height="60" as="geometry" />
        </mxCell>
        <mxCell id="tHR5adAbqXcKI6cgPoyI-2" value="end" style="ellipse;whiteSpace=wrap;html=1;" vertex="1" parent="1">
          <mxGeometry x="20" y="560" width="120" height="60" as="geometry" />
        </mxCell>
        <mxCell id="tHR5adAbqXcKI6cgPoyI-43" style="edgeStyle=orthogonalEdgeStyle;rounded=0;orthogonalLoop=1;jettySize=auto;html=1;" edge="1" parent="1" source="tHR5adAbqXcKI6cgPoyI-3" target="tHR5adAbqXcKI6cgPoyI-9">
          <mxGeometry relative="1" as="geometry" />
        </mxCell>
        <mxCell id="tHR5adAbqXcKI6cgPoyI-3" value="imput&amp;nbsp;&lt;div&gt;hours&lt;/div&gt;" style="shape=parallelogram;perimeter=parallelogramPerimeter;whiteSpace=wrap;html=1;fixedSize=1;" vertex="1" parent="1">
          <mxGeometry x="720" y="260" width="120" height="60" as="geometry" />
        </mxCell>
        <mxCell id="tHR5adAbqXcKI6cgPoyI-32" style="edgeStyle=orthogonalEdgeStyle;rounded=0;orthogonalLoop=1;jettySize=auto;html=1;entryX=0.5;entryY=0;entryDx=0;entryDy=0;" edge="1" parent="1" source="tHR5adAbqXcKI6cgPoyI-5" target="tHR5adAbqXcKI6cgPoyI-16">
          <mxGeometry relative="1" as="geometry" />
        </mxCell>
        <mxCell id="tHR5adAbqXcKI6cgPoyI-5" value="projectDetails()" style="rounded=0;whiteSpace=wrap;html=1;" vertex="1" parent="1">
          <mxGeometry x="20" y="230" width="120" height="60" as="geometry" />
        </mxCell>
        <mxCell id="tHR5adAbqXcKI6cgPoyI-8" value="" style="endArrow=none;html=1;rounded=0;entryX=1;entryY=0.25;entryDx=0;entryDy=0;exitX=0;exitY=0.25;exitDx=0;exitDy=0;" edge="1" parent="1" source="tHR5adAbqXcKI6cgPoyI-5" target="tHR5adAbqXcKI6cgPoyI-5">
          <mxGeometry width="50" height="50" relative="1" as="geometry">
            <mxPoint x="120" y="360" as="sourcePoint" />
            <mxPoint x="170" y="310" as="targetPoint" />
            <Array as="points" />
          </mxGeometry>
        </mxCell>
        <mxCell id="tHR5adAbqXcKI6cgPoyI-44" style="edgeStyle=orthogonalEdgeStyle;rounded=0;orthogonalLoop=1;jettySize=auto;html=1;entryX=0.5;entryY=0;entryDx=0;entryDy=0;" edge="1" parent="1" source="tHR5adAbqXcKI6cgPoyI-9" target="tHR5adAbqXcKI6cgPoyI-25">
          <mxGeometry relative="1" as="geometry" />
        </mxCell>
        <mxCell id="tHR5adAbqXcKI6cgPoyI-9" value="imput&lt;div&gt;wholesaleCosts&lt;/div&gt;" style="shape=parallelogram;perimeter=parallelogramPerimeter;whiteSpace=wrap;html=1;fixedSize=1;" vertex="1" parent="1">
          <mxGeometry x="720" y="350" width="120" height="60" as="geometry" />
        </mxCell>
        <mxCell id="tHR5adAbqXcKI6cgPoyI-39" style="edgeStyle=orthogonalEdgeStyle;rounded=0;orthogonalLoop=1;jettySize=auto;html=1;" edge="1" parent="1" source="tHR5adAbqXcKI6cgPoyI-10" target="tHR5adAbqXcKI6cgPoyI-26">
          <mxGeometry relative="1" as="geometry" />
        </mxCell>
        <mxCell id="tHR5adAbqXcKI6cgPoyI-10" value="ClculateProjectCosts()" style="ellipse;whiteSpace=wrap;html=1;" vertex="1" parent="1">
          <mxGeometry x="495" y="160" width="130" height="50" as="geometry" />
        </mxCell>
        <mxCell id="tHR5adAbqXcKI6cgPoyI-33" style="edgeStyle=orthogonalEdgeStyle;rounded=0;orthogonalLoop=1;jettySize=auto;html=1;entryX=0.5;entryY=0;entryDx=0;entryDy=0;" edge="1" parent="1" source="tHR5adAbqXcKI6cgPoyI-16" target="tHR5adAbqXcKI6cgPoyI-19">
          <mxGeometry relative="1" as="geometry" />
        </mxCell>
        <mxCell id="tHR5adAbqXcKI6cgPoyI-37" value="no" style="edgeLabel;html=1;align=center;verticalAlign=middle;resizable=0;points=[];" vertex="1" connectable="0" parent="tHR5adAbqXcKI6cgPoyI-33">
          <mxGeometry x="-0.64" relative="1" as="geometry">
            <mxPoint as="offset" />
          </mxGeometry>
        </mxCell>
        <mxCell id="tHR5adAbqXcKI6cgPoyI-34" style="edgeStyle=orthogonalEdgeStyle;rounded=0;orthogonalLoop=1;jettySize=auto;html=1;entryX=0;entryY=0.5;entryDx=0;entryDy=0;" edge="1" parent="1" source="tHR5adAbqXcKI6cgPoyI-16" target="tHR5adAbqXcKI6cgPoyI-18">
          <mxGeometry relative="1" as="geometry" />
        </mxCell>
        <mxCell id="tHR5adAbqXcKI6cgPoyI-36" value="yes" style="edgeLabel;html=1;align=center;verticalAlign=middle;resizable=0;points=[];" vertex="1" connectable="0" parent="tHR5adAbqXcKI6cgPoyI-34">
          <mxGeometry x="-0.1686" y="-1" relative="1" as="geometry">
            <mxPoint as="offset" />
          </mxGeometry>
        </mxCell>
        <mxCell id="tHR5adAbqXcKI6cgPoyI-16" value="projectedHours &amp;gt; 0" style="rhombus;whiteSpace=wrap;html=1;" vertex="1" parent="1">
          <mxGeometry x="15" y="320" width="130" height="120" as="geometry" />
        </mxCell>
        <mxCell id="tHR5adAbqXcKI6cgPoyI-35" style="edgeStyle=orthogonalEdgeStyle;rounded=0;orthogonalLoop=1;jettySize=auto;html=1;entryX=1;entryY=0.5;entryDx=0;entryDy=0;exitX=0.5;exitY=0;exitDx=0;exitDy=0;" edge="1" parent="1" source="tHR5adAbqXcKI6cgPoyI-18" target="tHR5adAbqXcKI6cgPoyI-5">
          <mxGeometry relative="1" as="geometry">
            <mxPoint x="230" y="210" as="targetPoint" />
            <mxPoint x="280" y="330.0588235294117" as="sourcePoint" />
          </mxGeometry>
        </mxCell>
        <mxCell id="tHR5adAbqXcKI6cgPoyI-18" value="calculateProjectCost()" style="rounded=0;whiteSpace=wrap;html=1;" vertex="1" parent="1">
          <mxGeometry x="190" y="350" width="120" height="60" as="geometry" />
        </mxCell>
        <mxCell id="tHR5adAbqXcKI6cgPoyI-38" style="edgeStyle=orthogonalEdgeStyle;rounded=0;orthogonalLoop=1;jettySize=auto;html=1;" edge="1" parent="1" source="tHR5adAbqXcKI6cgPoyI-19" target="tHR5adAbqXcKI6cgPoyI-2">
          <mxGeometry relative="1" as="geometry" />
        </mxCell>
        <mxCell id="tHR5adAbqXcKI6cgPoyI-19" value="endOfProject()" style="rounded=0;whiteSpace=wrap;html=1;" vertex="1" parent="1">
          <mxGeometry x="20" y="470" width="120" height="60" as="geometry" />
        </mxCell>
        <mxCell id="tHR5adAbqXcKI6cgPoyI-20" value="" style="endArrow=none;html=1;rounded=0;entryX=1;entryY=0.25;entryDx=0;entryDy=0;exitX=0;exitY=0.25;exitDx=0;exitDy=0;" edge="1" parent="1" source="tHR5adAbqXcKI6cgPoyI-19" target="tHR5adAbqXcKI6cgPoyI-19">
          <mxGeometry width="50" height="50" relative="1" as="geometry">
            <mxPoint x="20" y="350" as="sourcePoint" />
            <mxPoint x="70" y="300" as="targetPoint" />
          </mxGeometry>
        </mxCell>
        <mxCell id="tHR5adAbqXcKI6cgPoyI-22" value="" style="endArrow=none;html=1;rounded=0;entryX=0;entryY=0.25;entryDx=0;entryDy=0;exitX=1;exitY=0.25;exitDx=0;exitDy=0;" edge="1" parent="1" source="tHR5adAbqXcKI6cgPoyI-18" target="tHR5adAbqXcKI6cgPoyI-18">
          <mxGeometry width="50" height="50" relative="1" as="geometry">
            <mxPoint x="120" y="450" as="sourcePoint" />
            <mxPoint x="170" y="400" as="targetPoint" />
          </mxGeometry>
        </mxCell>
        <mxCell id="tHR5adAbqXcKI6cgPoyI-42" style="edgeStyle=orthogonalEdgeStyle;rounded=0;orthogonalLoop=1;jettySize=auto;html=1;" edge="1" parent="1" source="tHR5adAbqXcKI6cgPoyI-23" target="tHR5adAbqXcKI6cgPoyI-3">
          <mxGeometry relative="1" as="geometry" />
        </mxCell>
        <mxCell id="tHR5adAbqXcKI6cgPoyI-23" value="projectDetails()" style="ellipse;whiteSpace=wrap;html=1;" vertex="1" parent="1">
          <mxGeometry x="720" y="180" width="120" height="50" as="geometry" />
        </mxCell>
        <mxCell id="tHR5adAbqXcKI6cgPoyI-25" value="return" style="ellipse;whiteSpace=wrap;html=1;" vertex="1" parent="1">
          <mxGeometry x="720" y="440" width="120" height="50" as="geometry" />
        </mxCell>
        <mxCell id="tHR5adAbqXcKI6cgPoyI-41" style="edgeStyle=orthogonalEdgeStyle;rounded=0;orthogonalLoop=1;jettySize=auto;html=1;entryX=0.5;entryY=0;entryDx=0;entryDy=0;" edge="1" parent="1" source="tHR5adAbqXcKI6cgPoyI-26" target="tHR5adAbqXcKI6cgPoyI-27">
          <mxGeometry relative="1" as="geometry" />
        </mxCell>
        <mxCell id="tHR5adAbqXcKI6cgPoyI-26" value="laborCut = hours * $30&lt;div&gt;materialCosts = wholesaleCosts * 1.2&lt;/div&gt;&lt;div&gt;totalCosts = laborCosts + materialCosts&lt;/div&gt;" style="rounded=0;whiteSpace=wrap;html=1;" vertex="1" parent="1">
          <mxGeometry x="450" y="240" width="220" height="130" as="geometry" />
        </mxCell>
        <mxCell id="tHR5adAbqXcKI6cgPoyI-27" value="return" style="ellipse;whiteSpace=wrap;html=1;" vertex="1" parent="1">
          <mxGeometry x="500" y="410" width="120" height="50" as="geometry" />
        </mxCell>
        <mxCell id="tHR5adAbqXcKI6cgPoyI-45" style="edgeStyle=orthogonalEdgeStyle;rounded=0;orthogonalLoop=1;jettySize=auto;html=1;entryX=0;entryY=0.5;entryDx=0;entryDy=0;" edge="1" parent="1" source="tHR5adAbqXcKI6cgPoyI-28" target="tHR5adAbqXcKI6cgPoyI-29">
          <mxGeometry relative="1" as="geometry" />
        </mxCell>
        <mxCell id="tHR5adAbqXcKI6cgPoyI-28" value="endOfProject" style="ellipse;whiteSpace=wrap;html=1;" vertex="1" parent="1">
          <mxGeometry x="310" y="550" width="120" height="60" as="geometry" />
        </mxCell>
        <mxCell id="tHR5adAbqXcKI6cgPoyI-46" style="edgeStyle=orthogonalEdgeStyle;rounded=0;orthogonalLoop=1;jettySize=auto;html=1;entryX=0;entryY=0.5;entryDx=0;entryDy=0;" edge="1" parent="1" source="tHR5adAbqXcKI6cgPoyI-29" target="tHR5adAbqXcKI6cgPoyI-30">
          <mxGeometry relative="1" as="geometry" />
        </mxCell>
        <mxCell id="tHR5adAbqXcKI6cgPoyI-29" value="print&lt;div&gt;&quot;Total cost is &quot; + totalCosts&lt;/div&gt;" style="shape=parallelogram;perimeter=parallelogramPerimeter;whiteSpace=wrap;html=1;fixedSize=1;" vertex="1" parent="1">
          <mxGeometry x="495" y="550" width="140" height="60" as="geometry" />
        </mxCell>
        <mxCell id="tHR5adAbqXcKI6cgPoyI-30" value="return" style="ellipse;whiteSpace=wrap;html=1;" vertex="1" parent="1">
          <mxGeometry x="690" y="550" width="120" height="60" as="geometry" />
        </mxCell>
      </root>
    </mxGraphModel>
  </diagram>
</mxfile>
